<svg version="1.2" baseProfile="tiny-ps" xmlns="http://www.w3.org/2000/svg" viewBox="0 0 4000 1620" width="116" height="47">
	<title>Novo Projeto</title>
	<style>
		tspan { white-space:pre }
	</style>
	<path id="my Finances " fill="#ffffff" aria-label="my Finances"  d="M527.69 974.82L585.22 974.82L585.22 763.81C585.22 661.24 523.21 610.28 443.3 610.28C389.6 610.28 339.73 638.37 319.28 689.98C296.26 636.41 248.32 610.28 190.78 610.28C144.75 610.28 103.2 630.53 80.18 668.42L80.18 616.81L22.01 616.81L22.01 974.82L80.18 974.82L80.18 777.53C80.18 700.44 120.46 661.89 179.27 661.89C236.81 661.89 275.17 699.13 275.17 772.3L275.17 974.82L332.7 974.82L332.7 777.53C332.7 700.44 372.98 661.89 431.79 661.89C489.33 661.89 527.69 699.13 527.69 772.3ZM813.45 906.88L703.49 616.81L638.92 616.81L780.2 970.9L711.16 1143.37L771.25 1143.37L982.22 616.81L922.13 616.81ZM1211.09 974.82L1269.26 974.82L1269.26 769.69L1426.53 769.69L1426.53 721.34L1269.26 721.34L1269.26 567.82L1462.97 567.82L1462.97 519.47L1211.09 519.47ZM1533.29 974.82L1591.46 974.82L1591.46 616.81L1533.29 616.81ZM1563.34 558.67C1584.43 558.67 1601.69 541.03 1601.69 518.17C1601.69 495.3 1584.43 477.66 1563.34 477.66C1540.96 477.66 1523.7 495.3 1523.7 518.17C1523.7 541.03 1540.96 558.67 1563.34 558.67ZM1946.91 974.82L2004.45 974.82L2004.45 763.81C2004.45 661.24 1942.43 610.28 1861.24 610.28C1813.94 610.28 1771.74 630.53 1748.73 667.77L1748.73 616.81L1690.55 616.81L1690.55 974.82L1748.73 974.82L1748.73 776.87C1748.73 699.78 1789.64 661.89 1849.1 661.89C1907.91 661.89 1946.91 699.13 1946.91 772.3ZM2077.96 794.51C2077.96 905.57 2150.2 980.7 2243.54 980.7C2308.11 980.7 2353.5 946.73 2374.6 908.18L2374.6 974.82L2433.41 974.82L2433.41 616.81L2374.6 616.81L2374.6 682.14C2354.14 644.91 2309.39 610.93 2244.18 610.93C2150.2 610.93 2077.96 682.8 2077.96 794.51ZM2374.6 795.16C2374.6 879.44 2319.62 928.44 2255.69 928.44C2191.76 928.44 2137.42 878.79 2137.42 794.51C2137.42 710.24 2191.76 662.54 2255.69 662.54C2319.62 662.54 2374.6 712.2 2374.6 795.16ZM2788.22 974.82L2845.75 974.82L2845.75 763.81C2845.75 661.24 2783.74 610.28 2702.55 610.28C2655.24 610.28 2613.05 630.53 2590.04 667.77L2590.04 616.81L2531.86 616.81L2531.86 974.82L2590.04 974.82L2590.04 776.87C2590.04 699.78 2630.95 661.89 2690.4 661.89C2749.22 661.89 2788.22 699.13 2788.22 772.3ZM2919.27 795.16C2919.27 908.84 2990.23 980.7 3089.96 980.7C3176.9 980.7 3233.8 931.05 3251.7 859.84L3189.05 859.84C3176.27 904.92 3141.74 930.4 3089.96 930.4C3026.03 930.4 2978.72 884.01 2978.72 795.16C2978.72 707.62 3026.03 661.24 3089.96 661.24C3141.74 661.24 3176.9 688.68 3189.05 731.79L3251.7 731.79C3233.8 656.67 3176.9 610.93 3089.96 610.93C2990.23 610.93 2919.27 682.8 2919.27 795.16ZM3478.01 661.24C3538.1 661.24 3589.25 699.78 3588.61 769.69L3367.41 769.69C3373.81 699.78 3421.11 661.24 3478.01 661.24ZM3641.67 864.41L3579.02 864.41C3566.23 902.96 3532.99 930.4 3480.57 930.4C3421.11 930.4 3371.25 890.55 3366.77 818.03L3646.78 818.03C3648.06 805.62 3648.7 795.16 3648.7 782.1C3648.7 684.1 3582.21 610.93 3480.57 610.93C3378.28 610.93 3307.32 682.14 3307.32 795.16C3307.32 908.84 3380.84 980.7 3480.57 980.7C3567.51 980.7 3623.77 929.74 3641.67 864.41ZM3977.3 877.48C3974.74 749.43 3771.44 795.82 3771.44 710.89C3771.44 682.14 3797.02 661.24 3839.85 661.24C3886.52 661.24 3913.37 687.37 3915.92 723.3L3974.1 723.3C3970.26 653.4 3919.12 610.93 3841.77 610.93C3763.77 610.93 3713.27 656.01 3713.27 710.89C3713.27 844.16 3920.4 797.78 3920.4 877.48C3920.4 906.88 3894.83 930.4 3848.8 930.4C3799.57 930.4 3769.53 904.26 3766.33 869.64L3706.24 869.64C3710.07 934.97 3767.61 980.7 3849.44 980.7C3926.79 980.7 3977.3 936.28 3977.3 877.48Z" />
</svg>